<svg width="375" height="812" viewBox="0 0 375 812" fill="none" xmlns="http://www.w3.org/2000/svg">
<path fill-rule="evenodd" clip-rule="evenodd" d="M670.399 -75.2633L606.541 -65.9866C542.682 -56.7099 414.966 -38.1564 335.349 24.5122C255.731 87.1807 224.214 193.964 192.696 300.748C161.179 407.531 129.661 514.315 74.0942 599.041C18.5269 683.767 -61.0903 746.436 -100.899 777.77L-140.707 809.104L-393.23 577.5L-359.434 540.652C-325.638 503.803 -258.046 430.106 -190.454 356.408C-122.862 282.711 -55.2694 209.014 12.3229 135.316C79.9151 61.6192 147.507 -12.0781 215.1 -85.7754C282.692 -159.473 350.284 -233.17 384.08 -270.019L417.876 -306.867L670.399 -75.2633Z" fill="#04DB8B" fill-opacity="0.1"/>
<path fill-rule="evenodd" clip-rule="evenodd" d="M-380.946 1056.83L-327.68 1064.63C-274.415 1072.43 -167.885 1088.03 -89.2988 1056.9C-10.7129 1025.76 39.9285 947.898 90.57 870.034C141.211 792.17 191.853 714.306 256.467 659.807C321.08 605.309 399.666 574.176 438.959 558.609L478.252 543.042L624.961 788.378L589.161 809.786C553.361 831.194 481.761 874.01 410.161 916.826C338.561 959.642 266.962 1002.46 195.362 1045.27C123.762 1088.09 52.1621 1130.91 -19.4377 1173.72C-91.0375 1216.54 -162.637 1259.35 -198.437 1280.76L-234.237 1302.17L-380.946 1056.83Z" fill="#04DB8B" fill-opacity="0.1"/>
<path fill-rule="evenodd" clip-rule="evenodd" d="M-369.895 1090.93L-316.218 1095.02C-262.541 1099.12 -155.187 1107.31 -78.9422 1070.82C-2.69725 1034.33 42.4388 953.148 87.5748 871.969C132.711 790.789 177.847 709.61 238.537 650.774C299.228 591.938 375.473 555.445 413.595 537.198L451.718 518.952L615.04 753.556L580.806 777.388C546.572 801.22 478.104 848.885 409.637 896.549C341.169 944.214 272.701 991.878 204.233 1039.54C135.766 1087.21 67.2979 1134.87 -1.16985 1182.54C-69.6376 1230.2 -138.105 1277.87 -172.339 1301.7L-206.573 1325.53L-369.895 1090.93Z" fill="#04DB8B" fill-opacity="0.1"/>
<path fill-rule="evenodd" clip-rule="evenodd" d="M-509.922 201.059L-446.104 191.51C-382.285 181.961 -254.649 162.864 -175.299 99.8572C-95.9497 36.8502 -64.8872 -70.0667 -33.8248 -176.984C-2.76236 -283.9 28.3001 -390.817 83.506 -475.779C138.712 -560.741 218.062 -623.748 257.736 -655.252L297.411 -686.755L550.918 -456.229L517.279 -419.237C483.64 -382.244 416.363 -308.26 349.085 -234.275C281.807 -160.291 214.529 -86.3063 147.252 -12.3218C79.974 61.6627 12.6962 135.647 -54.5815 209.632C-121.859 283.616 -189.137 357.601 -222.776 394.593L-256.415 431.585L-509.922 201.059Z" fill="#04DB8B" fill-opacity="0.1"/>
<path fill-rule="evenodd" clip-rule="evenodd" d="M704.239 93.3388L639.731 94.9687C575.223 96.5987 446.207 99.8586 359.713 152.632C273.219 205.405 229.247 307.692 185.275 409.979C141.304 512.265 97.3318 614.552 32.0989 692.082C-33.134 769.612 -119.628 822.385 -162.875 848.772L-206.122 875.159L-429.363 615.213L-391.432 582.637C-353.5 550.062 -277.637 484.91 -201.773 419.758C-125.91 354.607 -50.0462 289.455 25.8173 224.303C101.681 159.152 177.544 94.0001 253.408 28.8484C329.271 -36.3032 405.135 -101.455 443.066 -134.031L480.998 -166.607L704.239 93.3388Z" fill="#04DB8B" fill-opacity="0.08"/>
<path fill-rule="evenodd" clip-rule="evenodd" d="M-500.539 227.581L-436.038 225.676C-371.538 223.771 -242.537 219.962 -156.268 166.821C-69.9996 113.679 -26.4638 11.2064 17.0719 -91.2666C60.6077 -193.74 104.144 -296.213 169.046 -374.02C233.948 -451.827 320.216 -504.968 363.35 -531.539L406.485 -558.109L630.831 -299.117L593.039 -266.38C555.246 -233.643 479.661 -168.169 404.075 -102.695C328.49 -37.2205 252.905 28.2537 177.319 93.7278C101.734 159.202 26.1489 224.676 -49.4364 290.15C-125.022 355.624 -200.607 421.099 -238.4 453.836L-276.192 486.573L-500.539 227.581Z" fill="#04DB8B" fill-opacity="0.08"/>
<rect x="-25.0001" y="-0.000854492" width="431" height="812" fill="#04DB8B" fill-opacity="0.03"/>
</svg>
