<svg width="375" height="812" viewBox="0 0 375 812" fill="none" xmlns="http://www.w3.org/2000/svg">
<mask id="mask0_357_723" style="mask-type:alpha" maskUnits="userSpaceOnUse" x="0" y="0" width="375" height="814">
<rect width="375" height="814" fill="#C4C4C4"/>
</mask>
<g mask="url(#mask0_357_723)">
<path fill-rule="evenodd" clip-rule="evenodd" d="M-44.563 1203.56L17.8551 1140.74C80.2731 1077.92 205.109 952.282 248.924 842.653C292.739 733.024 255.532 639.405 191.318 551.122C127.104 462.839 35.8836 379.893 7.67931 284.495C-20.525 189.096 14.2874 81.2463 31.6936 27.3213L49.0997 -26.6038L-329 48.1076L-319.399 96.6961C-309.798 145.285 -290.596 242.462 -271.394 339.639C-252.192 436.816 -232.991 533.993 -213.789 631.17C-194.587 728.347 -175.385 825.524 -156.183 922.701C-136.981 1019.88 -117.779 1117.06 -108.178 1165.64L-98.5772 1214.23L-44.563 1203.56Z" fill="#04DB8B" fill-opacity="0.15"/>
<path fill-rule="evenodd" clip-rule="evenodd" d="M-30.563 1175.56L31.8551 1112.74C94.2731 1049.92 219.109 924.282 262.924 814.653C306.739 705.024 269.532 611.405 205.318 523.122C141.104 434.839 49.8836 351.893 21.6793 256.495C-6.52497 161.096 28.2874 53.2463 45.6936 -0.678735L63.0997 -54.6038L-315 20.1076L-305.399 68.6961C-295.798 117.285 -276.596 214.462 -257.394 311.639C-238.192 408.816 -218.991 505.993 -199.789 603.17C-180.587 700.347 -161.385 797.524 -142.183 894.701C-122.981 991.878 -103.779 1089.06 -94.1782 1137.64L-84.5772 1186.23L-30.563 1175.56Z" fill="#04DB8B" fill-opacity="0.15"/>
</g>
</svg>
